<?xml version="1.0" encoding="UTF-8" standalone="no"?>
<svg
   width="14px"
   height="14px"
   viewBox="0 0 256 257"
   version="1.1"
   preserveAspectRatio="xMidYMid"
   id="svg6"
   sodipodi:docname="repo.svg"
   xml:space="preserve"
   inkscape:version="1.2.1 (9c6d41e410, 2022-07-14)"
   xmlns:inkscape="http://www.inkscape.org/namespaces/inkscape"
   xmlns:sodipodi="http://sodipodi.sourceforge.net/DTD/sodipodi-0.dtd"
   xmlns="http://www.w3.org/2000/svg"
   xmlns:svg="http://www.w3.org/2000/svg"><defs
     id="defs10"><clipPath
       id="a"><path
         d="M0 .113h91.887V92H0Zm0 0"
         id="path427" /></clipPath></defs><sodipodi:namedview
     id="namedview8"
     pagecolor="#ffffff"
     bordercolor="#000000"
     borderopacity="0.25"
     inkscape:showpageshadow="2"
     inkscape:pageopacity="0.0"
     inkscape:pagecheckerboard="0"
     inkscape:deskcolor="#d1d1d1"
     showgrid="false"
     inkscape:zoom="29.071429"
     inkscape:cx="1.9434889"
     inkscape:cy="7.5159705"
     inkscape:window-width="1920"
     inkscape:window-height="1001"
     inkscape:window-x="-9"
     inkscape:window-y="-9"
     inkscape:window-maximized="1"
     inkscape:current-layer="svg6" /><path
     style="fill:#f03c2e;fill-opacity:1;fill-rule:nonzero;stroke:none;stroke-width:2.79451"
     d="M 251.55358,117.06474 139.43792,4.9574468 a 16.537898,16.537898 0 0 0 -23.39563,0 L 92.769644,28.241253 122.29641,57.768064 a 19.645392,19.645392 0 0 1 20.2043,4.705959 19.65657,19.65657 0 0 1 4.66402,20.335629 l 28.46765,28.459278 a 19.639802,19.639802 0 0 1 20.33844,4.67241 19.673336,19.673336 0 0 1 0,27.82491 19.701281,19.701281 0 0 1 -27.84728,0 19.684515,19.684515 0 0 1 -4.27001,-21.40593 L 137.30572,95.820891 v 69.854319 a 19.673336,19.673336 0 0 1 5.19777,31.54998 19.673336,19.673336 0 0 1 -27.82491,0 19.673336,19.673336 0 0 1 0,-27.82771 19.729226,19.729226 0 0 1 6.43854,-4.30075 V 94.599685 A 19.698486,19.698486 0 0 1 110.44211,68.795192 L 81.328924,39.676412 4.4464235,116.53937 a 16.557459,16.557459 0 0 0 0,23.39283 L 116.56766,252.05344 a 16.557459,16.557459 0 0 0 23.39003,0 L 251.55358,140.45757 a 16.557459,16.557459 0 0 0 0,-23.39283"
     id="path432"
     clip-path="url(#clipPath447)" /></svg>
