<?xml version="1.0" encoding="UTF-8" standalone="no"?>
<svg
   width="14.588174"
   height="14.588"
   viewBox="0 0 266.75518 267.79401"
   version="1.1"
   preserveAspectRatio="xMidYMid"
   id="svg6"
   sodipodi:docname="repo.svg"
   xml:space="preserve"
   inkscape:version="1.2.1 (9c6d41e410, 2022-07-14)"
   xmlns:inkscape="http://www.inkscape.org/namespaces/inkscape"
   xmlns:sodipodi="http://sodipodi.sourceforge.net/DTD/sodipodi-0.dtd"
   xmlns="http://www.w3.org/2000/svg"
   xmlns:svg="http://www.w3.org/2000/svg"><defs
     id="defs10"><clipPath
       id="a"><path
         d="M 0,0.113 H 91.887 V 92 H 0 Z m 0,0"
         id="path427" /></clipPath></defs><sodipodi:namedview
     id="namedview8"
     pagecolor="#ffffff"
     bordercolor="#000000"
     borderopacity="0.25"
     inkscape:showpageshadow="2"
     inkscape:pageopacity="0.0"
     inkscape:pagecheckerboard="0"
     inkscape:deskcolor="#d1d1d1"
     showgrid="false"
     inkscape:zoom="29.071429"
     inkscape:cx="-1.2555282"
     inkscape:cy="7.5503684"
     inkscape:window-width="1920"
     inkscape:window-height="1001"
     inkscape:window-x="-9"
     inkscape:window-y="-9"
     inkscape:window-maximized="1"
     inkscape:current-layer="svg6" /><path
     style="fill:#f03c2e;fill-opacity:1;fill-rule:nonzero;stroke:none;stroke-width:2.91438"
     d="M 262.25158,121.97129 145.32712,5.0555276 a 17.247235,17.247235 0 0 0 -24.39913,0 L 96.65716,29.338013 127.45037,60.131275 a 20.488013,20.488013 0 0 1 21.07089,4.907806 20.499671,20.499671 0 0 1 4.86407,21.207856 L 183.074,115.92686 a 20.482183,20.482183 0 0 1 21.2108,4.87283 20.517156,20.517156 0 0 1 0,29.01837 20.5463,20.5463 0 0 1 -29.0417,0 20.528815,20.528815 0 0 1 -4.45316,-22.32406 L 143.10345,99.816248 v 72.850472 a 20.517156,20.517156 0 0 1 5.42071,32.90321 20.517156,20.517156 0 0 1 -29.01837,0 20.517156,20.517156 0 0 1 0,-29.02129 20.575443,20.575443 0 0 1 6.7147,-4.48521 V 98.542661 A 20.543385,20.543385 0 0 1 115.08764,71.631375 L 84.725729,41.263644 4.5456185,121.42337 a 17.267634,17.267634 0 0 0 0,24.39619 L 121.47592,262.74985 a 17.267634,17.267634 0 0 0 24.39325,0 L 262.25158,146.36746 a 17.267634,17.267634 0 0 0 0,-24.39617"
     id="path432"
     clip-path="url(#clipPath447)" /></svg>
