<?xml version="1.0" encoding="UTF-8" standalone="no"?>
<svg
   width="14px"
   height="14px"
   viewBox="0 0 256 248"
   version="1.1"
   preserveAspectRatio="xMidYMid"
   id="svg250"
   sodipodi:docname="repo.svg"
   xml:space="preserve"
   inkscape:version="1.2.1 (9c6d41e410, 2022-07-14)"
   xmlns:inkscape="http://www.inkscape.org/namespaces/inkscape"
   xmlns:sodipodi="http://sodipodi.sourceforge.net/DTD/sodipodi-0.dtd"
   xmlns="http://www.w3.org/2000/svg"
   xmlns:svg="http://www.w3.org/2000/svg"><defs
     id="defs254"><clipPath
       id="a"><path
         d="M0 .113h91.887V92H0Zm0 0"
         id="path427" /></clipPath></defs><sodipodi:namedview
     id="namedview252"
     pagecolor="#ffffff"
     bordercolor="#000000"
     borderopacity="0.25"
     inkscape:showpageshadow="2"
     inkscape:pageopacity="0.0"
     inkscape:pagecheckerboard="0"
     inkscape:deskcolor="#d1d1d1"
     showgrid="false"
     inkscape:zoom="41.113209"
     inkscape:cx="8.4279484"
     inkscape:cy="6.5064248"
     inkscape:window-width="1920"
     inkscape:window-height="1001"
     inkscape:window-x="-9"
     inkscape:window-y="-9"
     inkscape:window-maximized="1"
     inkscape:current-layer="svg250" /><path
     style="fill:#f03c2e;fill-opacity:1;fill-rule:nonzero;stroke:none;stroke-width:2.69113"
     d="M 246.98259,112.98779 139.01476,5.0280205 a 15.926063,15.926063 0 0 0 -22.53008,0 L 94.073026,27.45042 122.50742,55.884861 a 18.918592,18.918592 0 0 1 19.45682,4.53185 18.929356,18.929356 0 0 1 4.49148,19.5833 l 27.41446,27.406389 a 18.913208,18.913208 0 0 1 19.58599,4.49956 18.945502,18.945502 0 0 1 0,26.7955 18.972413,18.972413 0 0 1 -26.81704,0 18.956267,18.956267 0 0 1 -4.11203,-20.614 L 136.96144,92.529881 v 67.269989 a 18.945502,18.945502 0 0 1 5.00548,30.38276 18.945502,18.945502 0 0 1 -26.7955,0 18.945502,18.945502 0 0 1 0,-26.79819 18.999324,18.999324 0 0 1 6.20034,-4.14164 V 91.353861 A 18.969722,18.969722 0 0 1 111.09168,66.504031 L 83.055566,38.462521 9.0174061,112.48186 a 15.9449,15.9449 0 0 0 0,22.52739 L 116.99061,242.98246 a 15.9449,15.9449 0 0 0 22.5247,0 L 246.98259,135.51518 a 15.9449,15.9449 0 0 0 0,-22.52739"
     id="path432"
     clip-path="url(#clipPath447)" /></svg>
